<mxfile host="Electron" agent="Mozilla/5.0 (Windows NT 10.0; Win64; x64) AppleWebKit/537.36 (KHTML, like Gecko) draw.io/27.0.9 Chrome/134.0.6998.205 Electron/35.4.0 Safari/537.36" version="27.0.9">
  <diagram id="C5RBs43oDa-KdzZeNtuy" name="Page-1">
    <mxGraphModel dx="1426" dy="841" grid="1" gridSize="10" guides="1" tooltips="1" connect="1" arrows="1" fold="1" page="1" pageScale="1" pageWidth="827" pageHeight="1169" math="0" shadow="0">
      <root>
        <mxCell id="WIyWlLk6GJQsqaUBKTNV-0" />
        <mxCell id="WIyWlLk6GJQsqaUBKTNV-1" parent="WIyWlLk6GJQsqaUBKTNV-0" />
        <mxCell id="gvsxq40w_VTdR0jsHKIa-0" value="Start" style="strokeWidth=2;html=1;shape=mxgraph.flowchart.start_1;whiteSpace=wrap;" vertex="1" parent="WIyWlLk6GJQsqaUBKTNV-1">
          <mxGeometry x="364" y="20" width="100" height="60" as="geometry" />
        </mxCell>
        <mxCell id="gvsxq40w_VTdR0jsHKIa-17" value="End" style="strokeWidth=2;html=1;shape=mxgraph.flowchart.terminator;whiteSpace=wrap;" vertex="1" parent="WIyWlLk6GJQsqaUBKTNV-1">
          <mxGeometry x="364" y="710" width="100" height="60" as="geometry" />
        </mxCell>
        <mxCell id="gvsxq40w_VTdR0jsHKIa-22" style="edgeStyle=orthogonalEdgeStyle;rounded=0;orthogonalLoop=1;jettySize=auto;html=1;entryX=1;entryY=0.5;entryDx=0;entryDy=0;" edge="1" parent="WIyWlLk6GJQsqaUBKTNV-1" source="gvsxq40w_VTdR0jsHKIa-19" target="gvsxq40w_VTdR0jsHKIa-21">
          <mxGeometry relative="1" as="geometry" />
        </mxCell>
        <mxCell id="gvsxq40w_VTdR0jsHKIa-23" value="No" style="edgeLabel;html=1;align=center;verticalAlign=middle;resizable=0;points=[];" vertex="1" connectable="0" parent="gvsxq40w_VTdR0jsHKIa-22">
          <mxGeometry x="-0.2222" y="2" relative="1" as="geometry">
            <mxPoint as="offset" />
          </mxGeometry>
        </mxCell>
        <mxCell id="gvsxq40w_VTdR0jsHKIa-19" value="Is user logged in?" style="strokeWidth=2;html=1;shape=mxgraph.flowchart.decision;whiteSpace=wrap;" vertex="1" parent="WIyWlLk6GJQsqaUBKTNV-1">
          <mxGeometry x="354" y="110" width="120" height="100" as="geometry" />
        </mxCell>
        <mxCell id="gvsxq40w_VTdR0jsHKIa-20" style="edgeStyle=orthogonalEdgeStyle;rounded=0;orthogonalLoop=1;jettySize=auto;html=1;entryX=0.5;entryY=0;entryDx=0;entryDy=0;entryPerimeter=0;" edge="1" parent="WIyWlLk6GJQsqaUBKTNV-1" source="gvsxq40w_VTdR0jsHKIa-0" target="gvsxq40w_VTdR0jsHKIa-19">
          <mxGeometry relative="1" as="geometry" />
        </mxCell>
        <mxCell id="gvsxq40w_VTdR0jsHKIa-21" value="Redirect to login" style="rounded=1;whiteSpace=wrap;html=1;absoluteArcSize=1;arcSize=14;strokeWidth=2;" vertex="1" parent="WIyWlLk6GJQsqaUBKTNV-1">
          <mxGeometry x="210" y="135" width="100" height="50" as="geometry" />
        </mxCell>
        <mxCell id="gvsxq40w_VTdR0jsHKIa-51" style="edgeStyle=orthogonalEdgeStyle;rounded=0;orthogonalLoop=1;jettySize=auto;html=1;" edge="1" parent="WIyWlLk6GJQsqaUBKTNV-1" source="gvsxq40w_VTdR0jsHKIa-26" target="gvsxq40w_VTdR0jsHKIa-50">
          <mxGeometry relative="1" as="geometry" />
        </mxCell>
        <mxCell id="gvsxq40w_VTdR0jsHKIa-26" value="Show layout editor" style="rounded=1;whiteSpace=wrap;html=1;absoluteArcSize=1;arcSize=14;strokeWidth=2;" vertex="1" parent="WIyWlLk6GJQsqaUBKTNV-1">
          <mxGeometry x="364" y="370" width="100" height="50" as="geometry" />
        </mxCell>
        <mxCell id="gvsxq40w_VTdR0jsHKIa-47" style="edgeStyle=orthogonalEdgeStyle;rounded=0;orthogonalLoop=1;jettySize=auto;html=1;entryX=1;entryY=0.5;entryDx=0;entryDy=0;" edge="1" parent="WIyWlLk6GJQsqaUBKTNV-1" source="gvsxq40w_VTdR0jsHKIa-39" target="gvsxq40w_VTdR0jsHKIa-45">
          <mxGeometry relative="1" as="geometry" />
        </mxCell>
        <mxCell id="gvsxq40w_VTdR0jsHKIa-48" value="No" style="edgeLabel;html=1;align=center;verticalAlign=middle;resizable=0;points=[];" vertex="1" connectable="0" parent="gvsxq40w_VTdR0jsHKIa-47">
          <mxGeometry x="-0.2727" y="-2" relative="1" as="geometry">
            <mxPoint as="offset" />
          </mxGeometry>
        </mxCell>
        <mxCell id="gvsxq40w_VTdR0jsHKIa-49" style="edgeStyle=orthogonalEdgeStyle;rounded=0;orthogonalLoop=1;jettySize=auto;html=1;entryX=0.5;entryY=0;entryDx=0;entryDy=0;" edge="1" parent="WIyWlLk6GJQsqaUBKTNV-1" source="gvsxq40w_VTdR0jsHKIa-39" target="gvsxq40w_VTdR0jsHKIa-26">
          <mxGeometry relative="1" as="geometry" />
        </mxCell>
        <mxCell id="gvsxq40w_VTdR0jsHKIa-39" value="does user own gallery?" style="strokeWidth=2;html=1;shape=mxgraph.flowchart.decision;whiteSpace=wrap;" vertex="1" parent="WIyWlLk6GJQsqaUBKTNV-1">
          <mxGeometry x="354" y="242" width="120" height="100" as="geometry" />
        </mxCell>
        <mxCell id="gvsxq40w_VTdR0jsHKIa-43" style="edgeStyle=orthogonalEdgeStyle;rounded=0;orthogonalLoop=1;jettySize=auto;html=1;entryX=0.5;entryY=0;entryDx=0;entryDy=0;entryPerimeter=0;" edge="1" parent="WIyWlLk6GJQsqaUBKTNV-1" source="gvsxq40w_VTdR0jsHKIa-19" target="gvsxq40w_VTdR0jsHKIa-39">
          <mxGeometry relative="1" as="geometry" />
        </mxCell>
        <mxCell id="gvsxq40w_VTdR0jsHKIa-44" value="Yes" style="edgeLabel;html=1;align=center;verticalAlign=middle;resizable=0;points=[];" vertex="1" connectable="0" parent="gvsxq40w_VTdR0jsHKIa-43">
          <mxGeometry x="0.1667" y="-1" relative="1" as="geometry">
            <mxPoint as="offset" />
          </mxGeometry>
        </mxCell>
        <mxCell id="gvsxq40w_VTdR0jsHKIa-45" value="Deny access" style="rounded=1;whiteSpace=wrap;html=1;absoluteArcSize=1;arcSize=14;strokeWidth=2;" vertex="1" parent="WIyWlLk6GJQsqaUBKTNV-1">
          <mxGeometry x="210" y="267" width="100" height="50" as="geometry" />
        </mxCell>
        <mxCell id="gvsxq40w_VTdR0jsHKIa-53" style="edgeStyle=orthogonalEdgeStyle;rounded=0;orthogonalLoop=1;jettySize=auto;html=1;entryX=0.5;entryY=0;entryDx=0;entryDy=0;" edge="1" parent="WIyWlLk6GJQsqaUBKTNV-1" source="gvsxq40w_VTdR0jsHKIa-50" target="gvsxq40w_VTdR0jsHKIa-52">
          <mxGeometry relative="1" as="geometry" />
        </mxCell>
        <mxCell id="gvsxq40w_VTdR0jsHKIa-50" value="User updates layout" style="rounded=1;whiteSpace=wrap;html=1;absoluteArcSize=1;arcSize=14;strokeWidth=2;" vertex="1" parent="WIyWlLk6GJQsqaUBKTNV-1">
          <mxGeometry x="364" y="450" width="100" height="50" as="geometry" />
        </mxCell>
        <mxCell id="gvsxq40w_VTdR0jsHKIa-55" style="edgeStyle=orthogonalEdgeStyle;rounded=0;orthogonalLoop=1;jettySize=auto;html=1;entryX=0.5;entryY=0;entryDx=0;entryDy=0;" edge="1" parent="WIyWlLk6GJQsqaUBKTNV-1" source="gvsxq40w_VTdR0jsHKIa-52" target="gvsxq40w_VTdR0jsHKIa-54">
          <mxGeometry relative="1" as="geometry" />
        </mxCell>
        <mxCell id="gvsxq40w_VTdR0jsHKIa-52" value="Save new layout" style="rounded=1;whiteSpace=wrap;html=1;absoluteArcSize=1;arcSize=14;strokeWidth=2;" vertex="1" parent="WIyWlLk6GJQsqaUBKTNV-1">
          <mxGeometry x="364" y="535" width="100" height="50" as="geometry" />
        </mxCell>
        <mxCell id="gvsxq40w_VTdR0jsHKIa-54" value="Show success" style="rounded=1;whiteSpace=wrap;html=1;absoluteArcSize=1;arcSize=14;strokeWidth=2;" vertex="1" parent="WIyWlLk6GJQsqaUBKTNV-1">
          <mxGeometry x="364" y="620" width="100" height="50" as="geometry" />
        </mxCell>
        <mxCell id="gvsxq40w_VTdR0jsHKIa-56" style="edgeStyle=orthogonalEdgeStyle;rounded=0;orthogonalLoop=1;jettySize=auto;html=1;entryX=0.5;entryY=0;entryDx=0;entryDy=0;entryPerimeter=0;" edge="1" parent="WIyWlLk6GJQsqaUBKTNV-1" source="gvsxq40w_VTdR0jsHKIa-54" target="gvsxq40w_VTdR0jsHKIa-17">
          <mxGeometry relative="1" as="geometry" />
        </mxCell>
      </root>
    </mxGraphModel>
  </diagram>
</mxfile>
